<svg xmlns="http://www.w3.org/2000/svg" width="210.077" height="162.404" viewBox="0 0 210.077 162.404">
  <g id="logo" transform="translate(-0.001 -0.009)">
    <g id="Gruppe_1" data-name="Gruppe 1">
      <path id="Pfad_1" data-name="Pfad 1" d="M128.62,97c-14.5,18.4-23.09,49.13-24.12,45.68-8.21-27.34-7.18-54.22,14.82-73.18,22.91-19.75,61.83-40.82,70-32.46,3.62,3.68-8.81,36.87-10.44,56.63-2.93,42.1-7.72,80.6-52.8,67-1.18-.36-7.31,41.69-16.62,36.44-1.84-.67-7.58-3,5.52-41-.41-.18,7.82-24.62,20-45.39C148.4,88,167.86,76,165.39,68.64,161.48,56.94,140.74,81.63,128.62,97Z" transform="translate(-37.15 -35.15)" fill="#79b729" fill-rule="evenodd"/>
      <path id="Pfad_2" data-name="Pfad 2" d="M84.93,86.34a7.22,7.22,0,0,0-1.57-4.4,6.92,6.92,0,0,0-9.66-.86L39.57,109.52a6.94,6.94,0,0,0,0,10.53L73.7,148.49a6.92,6.92,0,0,0,9.66-.86,7.19,7.19,0,0,0,1.57-4.4A6.73,6.73,0,0,0,82.37,138S63,121.75,54.64,114.79c8.39-7,27.73-23.18,27.73-23.18a6.73,6.73,0,0,0,2.56-5.27Z" transform="translate(-37.15 -35.15)" fill="#9c9b9b" fill-rule="evenodd"/>
      <path id="Pfad_3" data-name="Pfad 3" d="M199.45,142.37a7.27,7.27,0,0,0,1.56,4.4,6.93,6.93,0,0,0,9.67.86l34.13-28.45a6.93,6.93,0,0,0,0-10.52L210.68,80.22a6.92,6.92,0,0,0-9.67.86,7.27,7.27,0,0,0-1.56,4.4,7,7,0,0,0,2.42,5.26s19.48,16.22,27.87,23.19c-8.39,7-27.87,23.17-27.87,23.17A7,7,0,0,0,199.45,142.37Z" transform="translate(-37.15 -35.15)" fill="#9c9b9b" fill-rule="evenodd"/>
    </g>
  </g>
</svg>
