<svg id="logo" xmlns="http://www.w3.org/2000/svg" width="210.077" height="162.405" viewBox="0 0 210.077 162.405">
  <g id="Group">
    <g id="Group-2" data-name="Group">
      <path id="Shape" d="M91.468,61.841c-14.5,18.4-23.09,49.13-24.12,45.68-8.21-27.34-7.18-54.22,14.82-73.18,22.91-19.75,61.83-40.82,70-32.46,3.62,3.68-8.81,36.87-10.44,56.63-2.93,42.1-7.72,80.6-52.8,67-1.18-.36-7.31,41.69-16.62,36.44-1.84-.67-7.58-3,5.52-41-.41-.18,7.82-24.62,20-45.39,13.42-22.72,32.88-34.72,30.41-42.08-3.91-11.7-24.65,12.99-36.77,28.36Z" fill="#fff" fill-rule="evenodd"/>
      <path id="Shape-2" data-name="Shape" d="M47.779,51.081a7.22,7.22,0,0,0-1.57-4.4,6.92,6.92,0,0,0-9.66-.86L2.419,74.261a6.94,6.94,0,0,0,0,10.53l34.13,28.44a6.921,6.921,0,0,0,9.66-.86,7.191,7.191,0,0,0,1.57-4.4,6.73,6.73,0,0,0-2.56-5.23s-19.37-16.25-27.73-23.21c8.39-7,27.73-23.18,27.73-23.18a6.73,6.73,0,0,0,2.56-5.27Z" fill="#fff" fill-rule="evenodd"/>
      <path id="Shape-3" data-name="Shape" d="M162.3,107.211a7.269,7.269,0,0,0,1.56,4.4,6.931,6.931,0,0,0,9.67.86l34.13-28.45a6.93,6.93,0,0,0,0-10.52l-34.13-28.44a6.92,6.92,0,0,0-9.67.86,7.267,7.267,0,0,0-1.56,4.4,7,7,0,0,0,2.42,5.26s19.48,16.22,27.87,23.19c-8.39,7-27.87,23.17-27.87,23.17a7,7,0,0,0-2.42,5.27Z" fill="#fff" fill-rule="evenodd"/>
    </g>
  </g>
</svg>
