<svg width="100%" height="100%" viewBox="0 0 35 35" fill="none" xmlns="http://www.w3.org/2000/svg">
<g filter="url(#filter0_d_50_428)">
<path d="M8.34808 28.0981C7.93386 28.8155 7.01648 29.0613 6.29904 28.6471C5.5816 28.2329 5.33579 27.3155 5.75 26.5981C6.16421 25.8806 7.18301 25.116 8.54904 24.75C8.91506 26.116 8.76229 27.3806 8.34808 28.0981Z" fill="#F4F4F4"/>
<path d="M19.3481 28.0981C18.9339 28.8155 18.0165 29.0613 17.299 28.6471C16.5816 28.2329 16.3358 27.3155 16.75 26.5981C17.1642 25.8806 18.183 25.116 19.549 24.75C19.9151 26.116 19.7623 27.3806 19.3481 28.0981Z" fill="#F4F4F4"/>
<path d="M13.3481 30.0981C12.9339 30.8155 12.0165 31.0613 11.299 30.6471C10.5816 30.2329 10.3358 29.3155 10.75 28.5981C11.1642 27.8806 12.183 27.116 13.549 26.75C13.9151 28.116 13.7623 29.3806 13.3481 30.0981Z" fill="#F4F4F4"/>
<path d="M2 14.3781C2 17.4852 4.65471 20 7.92341 20H26.8889C30.8194 20 34 16.9813 34 13.2509C34 9.5205 30.8194 6.4994 26.8889 6.4994C26.4787 6.4994 26.0736 6.53523 25.6811 6.6021C24.0555 3.85326 20.9655 2 17.4049 2C12.9862 2 9.26964 4.87303 8.22034 8.75627C8.12472 8.75149 8.02406 8.75149 7.92341 8.75149C4.65471 8.75149 2 11.2711 2 14.3781V14.3781Z" fill="#F4F4F4"/>
<path d="M1 18.6274C1 21.044 2.99104 23 5.44256 23H19.6667C22.6145 23 25 20.6521 25 17.7507C25 14.8493 22.6145 12.4995 19.6667 12.4995C19.359 12.4995 19.0552 12.5274 18.7608 12.5794C17.5416 10.4414 15.2241 9 12.5537 9C9.23968 9 6.45223 11.2346 5.66525 14.2549C5.59354 14.2512 5.51805 14.2512 5.44256 14.2512C2.99104 14.2512 1 16.2108 1 18.6274V18.6274Z" fill="white"/>
</g>
<defs>
<filter id="filter0_d_50_428" x="0.7" y="1.7" width="34" height="29.8484" filterUnits="userSpaceOnUse" color-interpolation-filters="sRGB">
<feFlood flood-opacity="0" result="BackgroundImageFix"/>
<feColorMatrix in="SourceAlpha" type="matrix" values="0 0 0 0 0 0 0 0 0 0 0 0 0 0 0 0 0 0 127 0" result="hardAlpha"/>
<feOffset dx="0.2" dy="0.2"/>
<feGaussianBlur stdDeviation="0.25"/>
<feComposite in2="hardAlpha" operator="out"/>
<feColorMatrix type="matrix" values="0 0 0 0 0 0 0 0 0 0 0 0 0 0 0 0 0 0 0.1 0"/>
<feBlend mode="normal" in2="BackgroundImageFix" result="effect1_dropShadow_50_428"/>
<feBlend mode="normal" in="SourceGraphic" in2="effect1_dropShadow_50_428" result="shape"/>
</filter>
</defs>
</svg>
