<svg width="100%" height="100%" viewBox="0 0 35 35" fill="none" xmlns="http://www.w3.org/2000/svg">
<g filter="url(#filter0_d_50_432)">
<path d="M11.397 34H12.197C12.197 34 13.7651 31.125 16.9171 25.3833L16.9731 25.2583C17.0451 25.1083 16.9891 24.8333 16.5971 24.8333H13.7971L13.9114 24H11.0667C10.3002 25.403 9.66068 26.5746 9.14897 27.5167C9.13297 27.55 9.24497 27.3333 9.09297 27.6167C8.94096 27.9 8.93296 28.1667 9.39697 28.1667H12.197L11.397 34Z" fill="#FADB4E"/>
</g>
<g filter="url(#filter1_d_50_432)">
<path d="M2 14.3781C2 17.4852 4.65471 20 7.92341 20H26.8889C30.8194 20 34 16.9813 34 13.2509C34 9.5205 30.8194 6.4994 26.8889 6.4994C26.4787 6.4994 26.0736 6.53523 25.6811 6.6021C24.0555 3.85326 20.9655 2 17.4049 2C12.9862 2 9.26964 4.87303 8.22034 8.75627C8.12472 8.75149 8.02406 8.75149 7.92341 8.75149C4.65471 8.75149 2 11.2711 2 14.3781V14.3781Z" fill="#F4F4F4"/>
</g>
<g filter="url(#filter2_d_50_432)">
<path d="M1 18.6274C1 21.044 2.99104 23 5.44256 23H19.6667C22.6145 23 25 20.6521 25 17.7507C25 14.8493 22.6145 12.4995 19.6667 12.4995C19.359 12.4995 19.0552 12.5274 18.7608 12.5794C17.5416 10.4414 15.2241 9 12.5537 9C9.23968 9 6.45223 11.2346 5.66525 14.2549C5.59354 14.2512 5.51805 14.2512 5.44256 14.2512C2.99104 14.2512 1 16.2108 1 18.6274V18.6274Z" fill="white"/>
</g>
<defs>
<filter id="filter0_d_50_432" x="8.7" y="23.7" width="9" height="11" filterUnits="userSpaceOnUse" color-interpolation-filters="sRGB">
<feFlood flood-opacity="0" result="BackgroundImageFix"/>
<feColorMatrix in="SourceAlpha" type="matrix" values="0 0 0 0 0 0 0 0 0 0 0 0 0 0 0 0 0 0 127 0" result="hardAlpha"/>
<feOffset dx="0.2" dy="0.2"/>
<feGaussianBlur stdDeviation="0.25"/>
<feComposite in2="hardAlpha" operator="out"/>
<feColorMatrix type="matrix" values="0 0 0 0 0 0 0 0 0 0 0 0 0 0 0 0 0 0 0.1 0"/>
<feBlend mode="normal" in2="BackgroundImageFix" result="effect1_dropShadow_50_432"/>
<feBlend mode="normal" in="SourceGraphic" in2="effect1_dropShadow_50_432" result="shape"/>
</filter>
<filter id="filter1_d_50_432" x="1.7" y="1.7" width="33" height="19" filterUnits="userSpaceOnUse" color-interpolation-filters="sRGB">
<feFlood flood-opacity="0" result="BackgroundImageFix"/>
<feColorMatrix in="SourceAlpha" type="matrix" values="0 0 0 0 0 0 0 0 0 0 0 0 0 0 0 0 0 0 127 0" result="hardAlpha"/>
<feOffset dx="0.2" dy="0.2"/>
<feGaussianBlur stdDeviation="0.25"/>
<feComposite in2="hardAlpha" operator="out"/>
<feColorMatrix type="matrix" values="0 0 0 0 0 0 0 0 0 0 0 0 0 0 0 0 0 0 0.1 0"/>
<feBlend mode="normal" in2="BackgroundImageFix" result="effect1_dropShadow_50_432"/>
<feBlend mode="normal" in="SourceGraphic" in2="effect1_dropShadow_50_432" result="shape"/>
</filter>
<filter id="filter2_d_50_432" x="0.7" y="8.7" width="25" height="15" filterUnits="userSpaceOnUse" color-interpolation-filters="sRGB">
<feFlood flood-opacity="0" result="BackgroundImageFix"/>
<feColorMatrix in="SourceAlpha" type="matrix" values="0 0 0 0 0 0 0 0 0 0 0 0 0 0 0 0 0 0 127 0" result="hardAlpha"/>
<feOffset dx="0.2" dy="0.2"/>
<feGaussianBlur stdDeviation="0.25"/>
<feComposite in2="hardAlpha" operator="out"/>
<feColorMatrix type="matrix" values="0 0 0 0 0 0 0 0 0 0 0 0 0 0 0 0 0 0 0.1 0"/>
<feBlend mode="normal" in2="BackgroundImageFix" result="effect1_dropShadow_50_432"/>
<feBlend mode="normal" in="SourceGraphic" in2="effect1_dropShadow_50_432" result="shape"/>
</filter>
</defs>
</svg>
