<svg xmlns="http://www.w3.org/2000/svg" width="19.396" height="34.92" viewBox="0 0 19.396 34.92">
  <path id="Pfad_362" data-name="Pfad 362" d="M105.976,48.456c-3.118,3.956-4.965,10.564-5.186,9.822-1.765-5.879-1.544-11.658,3.187-15.735,4.926-4.247,13.295-8.777,15.051-6.98.778.791-1.894,7.928-2.245,12.177a42.251,42.251,0,0,1-1.531,9.982c-1.255,3.854-3.948,6.2-9.822,4.424-.254-.077-1.572,8.964-3.574,7.835-.4-.144-1.63-.645,1.187-8.816a47.784,47.784,0,0,1,4.3-9.76c2.886-4.885,7.07-7.465,6.539-9.048C113.041,39.843,108.582,45.151,105.976,48.456Z" transform="translate(-99.773 -35.159)" fill="#fff" fill-rule="evenodd"/>
</svg>
