<svg xmlns:xlink="http://www.w3.org/1999/xlink" id="7aeece1f-6fad-4898-89c2-3c6dc9827501" data-name="Ebene 1" xmlns="http://www.w3.org/2000/svg" viewBox="0 0 494.71 162.35" width="494.71"  height="162.35" >
  <title>NatureRobots</title>
  <g>
    <g>
      <path d="M128.62,97c-14.5,18.4-23.09,49.13-24.12,45.68-8.21-27.34-7.18-54.22,14.82-73.18,22.91-19.75,61.83-40.82,70-32.46,3.62,3.68-8.81,36.87-10.44,56.63-2.93,42.1-7.72,80.6-52.8,67-1.18-.36-7.31,41.69-16.62,36.44-1.84-.67-7.58-3,5.52-41-.41-.18,7.82-24.62,20-45.39C148.4,88,167.86,76,165.39,68.64,161.48,56.94,140.74,81.63,128.62,97Z" transform="translate(-37.15 -35.15)" style="fill: #79b729;fill-rule: evenodd"/>
      <path d="M84.93,86.34a7.22,7.22,0,0,0-1.57-4.4,6.92,6.92,0,0,0-9.66-.86L39.57,109.52a6.94,6.94,0,0,0,0,10.53L73.7,148.49a6.92,6.92,0,0,0,9.66-.86,7.19,7.19,0,0,0,1.57-4.4A6.73,6.73,0,0,0,82.37,138S63,121.75,54.64,114.79c8.39-7,27.73-23.18,27.73-23.18A6.73,6.73,0,0,0,84.93,86.34Z" transform="translate(-37.15 -35.15)" style="fill: #9c9b9b;fill-rule: evenodd"/>
      <path d="M199.45,142.37a7.27,7.27,0,0,0,1.56,4.4,6.93,6.93,0,0,0,9.67.86l34.13-28.45a6.93,6.93,0,0,0,0-10.52L210.68,80.22a6.92,6.92,0,0,0-9.67.86,7.27,7.27,0,0,0-1.56,4.4,7,7,0,0,0,2.42,5.26s19.48,16.22,27.87,23.19c-8.39,7-27.87,23.17-27.87,23.17A7,7,0,0,0,199.45,142.37Z" transform="translate(-37.15 -35.15)" style="fill: #9c9b9b;fill-rule: evenodd"/>
    </g>
    <g>
      <g>
        <path d="M287.53,151.24v16.64H277.1v-45h14.63a29.35,29.35,0,0,1,8.3,1,15.16,15.16,0,0,1,5.62,2.77,10.56,10.56,0,0,1,3.18,4.23,14.93,14.93,0,0,1,.4,9.44,12.47,12.47,0,0,1-1.76,3.61,13.11,13.11,0,0,1-2.84,2.93,14.5,14.5,0,0,1-3.86,2.13,9.33,9.33,0,0,1,2,1.3,7.55,7.55,0,0,1,1.6,1.88l9.57,15.65h-9.45a4,4,0,0,1-3.76-2l-7.47-13.05a3.13,3.13,0,0,0-1.17-1.24,3.85,3.85,0,0,0-1.85-.37Zm0-7.19h4.2a10.89,10.89,0,0,0,3.61-.52,6.67,6.67,0,0,0,2.47-1.51,5.75,5.75,0,0,0,1.39-2.22,8.7,8.7,0,0,0,.43-2.78,5.78,5.78,0,0,0-1.94-4.63q-1.92-1.66-6-1.67h-4.2Z" transform="translate(-37.15 -35.15)" style="fill: #9c9b9b;fill-rule: evenodd"/>
        <path d="M364.37,145.38a24,24,0,0,1-1.7,9.07,21.17,21.17,0,0,1-12.09,12.16,25,25,0,0,1-9.54,1.76,25.24,25.24,0,0,1-9.57-1.76,21.27,21.27,0,0,1-12.15-12.16,25.47,25.47,0,0,1,0-18.14,21.71,21.71,0,0,1,4.75-7.28,22.07,22.07,0,0,1,7.4-4.85,25.24,25.24,0,0,1,9.57-1.76,24.61,24.61,0,0,1,9.54,1.79,21.9,21.9,0,0,1,7.37,4.85,21.34,21.34,0,0,1,4.72,7.28A23.92,23.92,0,0,1,364.37,145.38Zm-10.68,0a19.4,19.4,0,0,0-.86-6,12.53,12.53,0,0,0-2.5-4.54,10.56,10.56,0,0,0-3.95-2.84,13.6,13.6,0,0,0-5.34-1,13.9,13.9,0,0,0-5.4,1,10.83,10.83,0,0,0-4,2.84,12.78,12.78,0,0,0-2.47,4.54,19.4,19.4,0,0,0-.86,6,19.91,19.91,0,0,0,.86,6.05,12.86,12.86,0,0,0,2.47,4.5,10.72,10.72,0,0,0,4,2.84,14.29,14.29,0,0,0,5.4,1,14,14,0,0,0,5.34-1,10.45,10.45,0,0,0,3.95-2.84,12.59,12.59,0,0,0,2.5-4.5A19.91,19.91,0,0,0,353.69,145.38Z" transform="translate(-37.15 -35.15)" style="fill: #9c9b9b;fill-rule: evenodd"/>
        <path d="M371.22,167.88v-45h16.54a31.31,31.31,0,0,1,7.93.86,15.19,15.19,0,0,1,5.34,2.44,9.12,9.12,0,0,1,3,3.82,12.74,12.74,0,0,1,1,5,10,10,0,0,1-.44,2.94,8.6,8.6,0,0,1-1.35,2.62,10.5,10.5,0,0,1-2.38,2.25,15.56,15.56,0,0,1-3.49,1.73,12.29,12.29,0,0,1,6.58,3.52,9,9,0,0,1,2.13,6.2,12.75,12.75,0,0,1-1.12,5.34,12.39,12.39,0,0,1-3.27,4.32,15.55,15.55,0,0,1-5.27,2.87,23.33,23.33,0,0,1-7.19,1Zm10.43-19.07V160H389a9.12,9.12,0,0,0,3.37-.53,5.36,5.36,0,0,0,2.06-1.35,4.48,4.48,0,0,0,1-1.89,8.09,8.09,0,0,0,.28-2.13,6.72,6.72,0,0,0-.34-2.22,3.54,3.54,0,0,0-1.11-1.66,5.11,5.11,0,0,0-2.07-1,12,12,0,0,0-3.27-.37Zm0-7h5.43a18.49,18.49,0,0,0,3.12-.24,6.48,6.48,0,0,0,2.34-.87A3.83,3.83,0,0,0,394,139a6.17,6.17,0,0,0,.53-2.71,7.66,7.66,0,0,0-.4-2.65,3.75,3.75,0,0,0-1.24-1.73,5.22,5.22,0,0,0-2.13-.93,14.58,14.58,0,0,0-3-.28h-6.11Z" transform="translate(-37.15 -35.15)" style="fill: #9c9b9b;fill-rule: evenodd"/>
        <path d="M457.93,145.38a24,24,0,0,1-1.7,9.07,21.17,21.17,0,0,1-12.09,12.16,26.82,26.82,0,0,1-19.11,0,21.27,21.27,0,0,1-12.15-12.16,25.47,25.47,0,0,1,0-18.14,21.71,21.71,0,0,1,4.75-7.28,22.07,22.07,0,0,1,7.4-4.85,25.21,25.21,0,0,1,9.57-1.76,24.61,24.61,0,0,1,9.54,1.79,22,22,0,0,1,7.37,4.85,21.34,21.34,0,0,1,4.72,7.28A23.92,23.92,0,0,1,457.93,145.38Zm-10.68,0a19.4,19.4,0,0,0-.86-6,12.53,12.53,0,0,0-2.5-4.54,10.56,10.56,0,0,0-3.95-2.84,13.67,13.67,0,0,0-5.34-1,13.9,13.9,0,0,0-5.4,1,10.83,10.83,0,0,0-4,2.84,12.78,12.78,0,0,0-2.47,4.54,19.1,19.1,0,0,0-.86,6,19.6,19.6,0,0,0,.86,6.05,12.86,12.86,0,0,0,2.47,4.5,10.72,10.72,0,0,0,4,2.84,14.29,14.29,0,0,0,5.4,1,14,14,0,0,0,5.34-1,10.45,10.45,0,0,0,3.95-2.84,12.59,12.59,0,0,0,2.5-4.5A19.91,19.91,0,0,0,447.25,145.38Z" transform="translate(-37.15 -35.15)" style="fill: #9c9b9b;fill-rule: evenodd"/>
        <polygon points="460.28 87.77 460.28 96.04 447.63 96.04 447.63 132.73 437.2 132.73 437.2 96.04 424.54 96.04 424.54 87.77 460.28 87.77" style="fill: #9c9b9b;fill-rule: evenodd"/>
        <path d="M528.65,132.05a3.88,3.88,0,0,1-1,1.11,2.11,2.11,0,0,1-1.3.37,3.34,3.34,0,0,1-1.54-.43c-.54-.31-1.15-.65-1.85-1a14.32,14.32,0,0,0-2.35-1,9.35,9.35,0,0,0-3-.46,6.5,6.5,0,0,0-4.39,1.27,4.24,4.24,0,0,0-1.42,3.36,3.09,3.09,0,0,0,.87,2.25,7.57,7.57,0,0,0,2.25,1.55,27.89,27.89,0,0,0,3.21,1.2c1.21.35,2.45.75,3.7,1.2a31.1,31.1,0,0,1,3.68,1.54,12.1,12.1,0,0,1,3.21,2.29,10.64,10.64,0,0,1,2.28,3.39,12,12,0,0,1,.86,4.79,15.65,15.65,0,0,1-1.08,5.83,13.82,13.82,0,0,1-3.14,4.75,14.61,14.61,0,0,1-5.07,3.18,19,19,0,0,1-6.82,1.14,22,22,0,0,1-4.28-.43,26.23,26.23,0,0,1-4.2-1.21,25.21,25.21,0,0,1-3.83-1.88,16.32,16.32,0,0,1-3.11-2.4l3.08-4.88a2.5,2.5,0,0,1,1-.89,2.66,2.66,0,0,1,1.33-.34,3.46,3.46,0,0,1,1.85.58c.63.39,1.34.83,2.13,1.3a18,18,0,0,0,2.74,1.29,10.25,10.25,0,0,0,3.64.59,7,7,0,0,0,4.42-1.23,4.81,4.81,0,0,0,1.57-4,3.8,3.8,0,0,0-.86-2.57,6.75,6.75,0,0,0-2.29-1.63,20.15,20.15,0,0,0-3.18-1.14c-1.19-.33-2.41-.69-3.67-1.08a30.59,30.59,0,0,1-3.67-1.48,12.4,12.4,0,0,1-3.21-2.32,11,11,0,0,1-2.25-3.58,14.25,14.25,0,0,1-.87-5.31,12.73,12.73,0,0,1,4-9.22,14.55,14.55,0,0,1,4.84-3,17.67,17.67,0,0,1,6.57-1.14,23.84,23.84,0,0,1,4,.34,19.89,19.89,0,0,1,3.74,1,18.09,18.09,0,0,1,3.27,1.51,14.86,14.86,0,0,1,2.75,2Z" transform="translate(-37.15 -35.15)" style="fill: #9c9b9b;fill-rule: evenodd"/>
      </g>
      <g>
        <path d="M282.6,61.2a9.12,9.12,0,0,1,1.14.06,2.68,2.68,0,0,1,.83.25,2.53,2.53,0,0,1,.71.46,8.53,8.53,0,0,1,.77.84l21.36,27c-.09-.87-.15-1.7-.19-2.5s-.06-1.6-.06-2.32V61.2h9.2v45h-5.44a4.91,4.91,0,0,1-2-.37,4.4,4.4,0,0,1-1.61-1.36l-21.2-26.78c.07.78.12,1.55.16,2.31s.06,1.44.06,2.1v24.1h-9.2v-45Z" transform="translate(-37.15 -35.15)" style="fill: #79b729;fill-rule: evenodd"/>
        <path d="M367.45,106.16h-8.08a3.8,3.8,0,0,1-2.25-.62,3.36,3.36,0,0,1-1.21-1.63l-2.65-7.84h-17.1l-2.65,7.84a3.52,3.52,0,0,1-3.39,2.25H322l17.4-45h10.68ZM338.57,89h12.28l-4.13-12.31-1-2.75q-.52-1.6-1.05-3.45c-.33,1.25-.67,2.42-1,3.49s-.67,2-1,2.77Z" transform="translate(-37.15 -35.15)" style="fill: #79b729;fill-rule: evenodd"/>
        <polygon points="368.45 26.05 368.45 34.32 355.8 34.32 355.8 71.01 345.37 71.01 345.37 34.32 332.71 34.32 332.71 26.05 368.45 26.05" style="fill: #79b729;fill-rule: evenodd"/>
        <path d="M430.47,97.92a9.51,9.51,0,0,0,3.73-.68,7.71,7.71,0,0,0,2.81-2,8.74,8.74,0,0,0,1.73-3.15,13.65,13.65,0,0,0,.61-4.26V61.2h10.43V87.83a20.66,20.66,0,0,1-1.35,7.59,16.88,16.88,0,0,1-3.83,6,17.49,17.49,0,0,1-6.08,3.89,24.29,24.29,0,0,1-16.14,0,17.59,17.59,0,0,1-6.08-3.89,16.86,16.86,0,0,1-3.82-6,20.86,20.86,0,0,1-1.33-7.59V61.2h10.43V87.8a14.06,14.06,0,0,0,.59,4.26,9.41,9.41,0,0,0,1.75,3.18,7.86,7.86,0,0,0,2.78,2A9.78,9.78,0,0,0,430.47,97.92Z" transform="translate(-37.15 -35.15)" style="fill: #79b729;fill-rule: evenodd"/>
        <path d="M468.85,89.53v16.63H458.42v-45h14.63a29.35,29.35,0,0,1,8.3,1A15.25,15.25,0,0,1,487,65a10.42,10.42,0,0,1,3.17,4.22,14,14,0,0,1,1,5.31,14.33,14.33,0,0,1-.58,4.14,12.6,12.6,0,0,1-1.76,3.61A13.33,13.33,0,0,1,486,85.21a15.08,15.08,0,0,1-3.86,2.13,9.7,9.7,0,0,1,2,1.29,7.78,7.78,0,0,1,1.6,1.89l9.57,15.64h-9.45a4,4,0,0,1-3.76-2l-7.47-13.06a3.17,3.17,0,0,0-1.17-1.23,3.74,3.74,0,0,0-1.85-.37Zm0-7.19h4.2a10.87,10.87,0,0,0,3.61-.53,6.67,6.67,0,0,0,2.47-1.51,5.75,5.75,0,0,0,1.39-2.22A8.94,8.94,0,0,0,481,75.3,5.81,5.81,0,0,0,479,70.67q-1.92-1.67-6-1.66h-4.2Z" transform="translate(-37.15 -35.15)" style="fill: #79b729;fill-rule: evenodd"/>
        <polygon points="493.11 26.05 493.11 34.08 474.66 34.08 474.66 44.57 488.79 44.57 488.79 52.28 474.66 52.28 474.66 62.99 493.11 62.99 493.11 71.01 464.17 71.01 464.17 26.05 493.11 26.05" style="fill: #79b729;fill-rule: evenodd"/>
      </g>
    </g>
  </g>
</svg>
