<svg width="100%" height="100%" viewBox="0 0 35 35" fill="none" xmlns="http://www.w3.org/2000/svg">
<g filter="url(#filter0_d_50_427)">
<circle cx="9" cy="12" r="8" fill="url(#paint0_linear_50_427)"/>
<path d="M2 20.3781C2 23.4852 4.65471 26 7.92341 26H26.8889C30.8194 26 34 22.9813 34 19.2509C34 15.5205 30.8194 12.4994 26.8889 12.4994C26.4787 12.4994 26.0736 12.5352 25.6811 12.6021C24.0555 9.85326 20.9655 8 17.4049 8C12.9862 8 9.26964 10.873 8.22034 14.7563C8.12472 14.7515 8.02406 14.7515 7.92341 14.7515C4.65471 14.7515 2 17.2711 2 20.3781V20.3781Z" fill="#F4F4F4"/>
</g>
<defs>
<filter id="filter0_d_50_427" x="0.7" y="3.7" width="34" height="23" filterUnits="userSpaceOnUse" color-interpolation-filters="sRGB">
<feFlood flood-opacity="0" result="BackgroundImageFix"/>
<feColorMatrix in="SourceAlpha" type="matrix" values="0 0 0 0 0 0 0 0 0 0 0 0 0 0 0 0 0 0 127 0" result="hardAlpha"/>
<feOffset dx="0.2" dy="0.2"/>
<feGaussianBlur stdDeviation="0.25"/>
<feComposite in2="hardAlpha" operator="out"/>
<feColorMatrix type="matrix" values="0 0 0 0 0 0 0 0 0 0 0 0 0 0 0 0 0 0 0.1 0"/>
<feBlend mode="normal" in2="BackgroundImageFix" result="effect1_dropShadow_50_427"/>
<feBlend mode="normal" in="SourceGraphic" in2="effect1_dropShadow_50_427" result="shape"/>
</filter>
<linearGradient id="paint0_linear_50_427" x1="9" y1="4" x2="9" y2="20" gradientUnits="userSpaceOnUse">
<stop offset="0.328125" stop-color="#FADB4E"/>
</linearGradient>
</defs>
</svg>
