<svg width="100%" height="100%" viewBox="0 0 35 35" fill="none" xmlns="http://www.w3.org/2000/svg">
<g filter="url(#filter0_d_54_314)">
<path d="M2 14.3781C2 17.4852 4.65471 20 7.92341 20H26.8889C30.8194 20 34 16.9813 34 13.2509C34 9.5205 30.8194 6.4994 26.8889 6.4994C26.4787 6.4994 26.0736 6.53523 25.6811 6.6021C24.0555 3.85326 20.9655 2 17.4049 2C12.9862 2 9.26964 4.87303 8.22034 8.75627C8.12472 8.75149 8.02406 8.75149 7.92341 8.75149C4.65471 8.75149 2 11.2711 2 14.3781V14.3781Z" fill="#F4F4F4"/>
<path d="M1 18.6274C1 21.044 2.99104 23 5.44256 23H19.6667C22.6145 23 25 20.6521 25 17.7507C25 14.8493 22.6145 12.4995 19.6667 12.4995C19.359 12.4995 19.0552 12.5274 18.7608 12.5794C17.5416 10.4414 15.2241 9 12.5537 9C9.23968 9 6.45223 11.2346 5.66525 14.2549C5.59354 14.2512 5.51805 14.2512 5.44256 14.2512C2.99104 14.2512 1 16.2108 1 18.6274V18.6274Z" fill="white"/>
</g>
<g filter="url(#filter1_d_54_314)">
<rect x="5" y="30.1213" width="7.33916" height="1.75829" rx="0.879146" transform="rotate(-56.5202 5 30.1213)" fill="#F4F4F4"/>
</g>
<g filter="url(#filter2_d_54_314)">
<rect x="10" y="30.1213" width="7.33916" height="1.75829" rx="0.879146" transform="rotate(-56.5202 10 30.1213)" fill="#F4F4F4"/>
</g>
<g filter="url(#filter3_d_54_314)">
<rect x="15" y="30.1213" width="7.33916" height="1.75829" rx="0.879146" transform="rotate(-56.5202 15 30.1213)" fill="#F4F4F4"/>
</g>
<defs>
<filter id="filter0_d_54_314" x="0.7" y="1.7" width="34" height="22" filterUnits="userSpaceOnUse" color-interpolation-filters="sRGB">
<feFlood flood-opacity="0" result="BackgroundImageFix"/>
<feColorMatrix in="SourceAlpha" type="matrix" values="0 0 0 0 0 0 0 0 0 0 0 0 0 0 0 0 0 0 127 0" result="hardAlpha"/>
<feOffset dx="0.2" dy="0.2"/>
<feGaussianBlur stdDeviation="0.25"/>
<feComposite in2="hardAlpha" operator="out"/>
<feColorMatrix type="matrix" values="0 0 0 0 0 0 0 0 0 0 0 0 0 0 0 0 0 0 0.1 0"/>
<feBlend mode="normal" in2="BackgroundImageFix" result="effect1_dropShadow_54_314"/>
<feBlend mode="normal" in="SourceGraphic" in2="effect1_dropShadow_54_314" result="shape"/>
</filter>
<filter id="filter1_d_54_314" x="5.03984" y="24.0389" width="5.83594" height="7.41333" filterUnits="userSpaceOnUse" color-interpolation-filters="sRGB">
<feFlood flood-opacity="0" result="BackgroundImageFix"/>
<feColorMatrix in="SourceAlpha" type="matrix" values="0 0 0 0 0 0 0 0 0 0 0 0 0 0 0 0 0 0 127 0" result="hardAlpha"/>
<feOffset dx="0.2" dy="0.2"/>
<feGaussianBlur stdDeviation="0.25"/>
<feComposite in2="hardAlpha" operator="out"/>
<feColorMatrix type="matrix" values="0 0 0 0 0 0 0 0 0 0 0 0 0 0 0 0 0 0 0.1 0"/>
<feBlend mode="normal" in2="BackgroundImageFix" result="effect1_dropShadow_54_314"/>
<feBlend mode="normal" in="SourceGraphic" in2="effect1_dropShadow_54_314" result="shape"/>
</filter>
<filter id="filter2_d_54_314" x="10.0398" y="24.0389" width="5.83594" height="7.41333" filterUnits="userSpaceOnUse" color-interpolation-filters="sRGB">
<feFlood flood-opacity="0" result="BackgroundImageFix"/>
<feColorMatrix in="SourceAlpha" type="matrix" values="0 0 0 0 0 0 0 0 0 0 0 0 0 0 0 0 0 0 127 0" result="hardAlpha"/>
<feOffset dx="0.2" dy="0.2"/>
<feGaussianBlur stdDeviation="0.25"/>
<feComposite in2="hardAlpha" operator="out"/>
<feColorMatrix type="matrix" values="0 0 0 0 0 0 0 0 0 0 0 0 0 0 0 0 0 0 0.1 0"/>
<feBlend mode="normal" in2="BackgroundImageFix" result="effect1_dropShadow_54_314"/>
<feBlend mode="normal" in="SourceGraphic" in2="effect1_dropShadow_54_314" result="shape"/>
</filter>
<filter id="filter3_d_54_314" x="15.0398" y="24.0389" width="5.83594" height="7.41333" filterUnits="userSpaceOnUse" color-interpolation-filters="sRGB">
<feFlood flood-opacity="0" result="BackgroundImageFix"/>
<feColorMatrix in="SourceAlpha" type="matrix" values="0 0 0 0 0 0 0 0 0 0 0 0 0 0 0 0 0 0 127 0" result="hardAlpha"/>
<feOffset dx="0.2" dy="0.2"/>
<feGaussianBlur stdDeviation="0.25"/>
<feComposite in2="hardAlpha" operator="out"/>
<feColorMatrix type="matrix" values="0 0 0 0 0 0 0 0 0 0 0 0 0 0 0 0 0 0 0.1 0"/>
<feBlend mode="normal" in2="BackgroundImageFix" result="effect1_dropShadow_54_314"/>
<feBlend mode="normal" in="SourceGraphic" in2="effect1_dropShadow_54_314" result="shape"/>
</filter>
</defs>
</svg>
