<?xml version="1.0" encoding="utf-8"?>
<svg width="365px" height="560px" viewBox="0 0 365 560" version="1.1" xmlns:xlink="http://www.w3.org/1999/xlink" xmlns="http://www.w3.org/2000/svg">
  <defs>
    <path d="M0 0L365 0L365 560L0 560L0 0Z" id="path_1" />
    <clipPath id="mask_1">
      <use xlink:href="#path_1" />
    </clipPath>
  </defs>
  <g id="test2">
    <path d="M0 0L365 0L365 560L0 560L0 0Z" id="Background" fill="none" fill-rule="evenodd" stroke="none" />
    <g clip-path="url(#mask_1)">
      <g id="Group" transform="translate(7.5 7.699951)">
        <path d="M175.4 544C175.4 544.1 175.6 544.3 175.6 544.3C175.6 544.3 350.8 275.3 350.8 186.9C350.8 56.8 262 0.199997 175.4 0C88.8 0.199988 0 56.8 0 186.9C0 275.3 175.3 544.3 175.3 544.3C175.3 544.3 175.4 544 175.4 544L175.4 544ZM114.7 179.5C114.7 145.9 141.9 118.7 175.5 118.7C209.1 118.7 236.3 145.9 236.3 179.5C236.3 213.1 209 240.3 175.4 240.3C141.9 240.3 114.7 213.1 114.7 179.5L114.7 179.5Z" id="Shape" fill="#79B729" fill-rule="evenodd" stroke="none" />
      </g>
    </g>
  </g>
</svg>
